<mxfile host="app.diagrams.net" modified="2023-04-18T12:13:47.666Z" agent="Mozilla/5.0 (Windows NT 10.0; Win64; x64; rv:109.0) Gecko/20100101 Firefox/112.0" version="21.1.5" etag="-CQz9uE5f8S7s-dAqOwa" type="github">
  <diagram name="Sivu-1" id="-olULv6bevzqwktb6eJ8">
    <mxGraphModel>
      <root>
        <mxCell id="0" />
        <mxCell id="1" parent="0" />
      </root>
    </mxGraphModel>
  </diagram>
</mxfile>
